<mxfile host="drawio-plugin" modified="2022-10-26T08:19:48.550Z" agent="5.0 (X11; Linux x86_64) AppleWebKit/537.36 (KHTML, like Gecko) Chrome/98.0.4758.102 Safari/537.36" etag="4iNyU6ixhTfLznLklDqF" version="15.5.4" type="embed"><diagram id="FYTw0mynKNh58GAoRjsP" name="Page-1"><mxGraphModel dx="1120" dy="565" grid="1" gridSize="10" guides="1" tooltips="1" connect="1" arrows="1" fold="1" page="1" pageScale="1" pageWidth="850" pageHeight="1100" math="0" shadow="0"><root><mxCell id="0"/><mxCell id="1" parent="0"/><mxCell id="9" value="AWS Cloud App" style="points=[[0,0],[0.25,0],[0.5,0],[0.75,0],[1,0],[1,0.25],[1,0.5],[1,0.75],[1,1],[0.75,1],[0.5,1],[0.25,1],[0,1],[0,0.75],[0,0.5],[0,0.25]];outlineConnect=0;gradientColor=none;html=1;whiteSpace=wrap;fontSize=12;fontStyle=0;shape=mxgraph.aws4.group;grIcon=mxgraph.aws4.group_aws_cloud_alt;strokeColor=#CC6600;fillColor=none;verticalAlign=top;align=left;spacingLeft=30;fontColor=#CC6600;dashed=0;" parent="1" vertex="1"><mxGeometry x="80" y="120" width="640" height="520" as="geometry"/></mxCell><mxCell id="8" value="AwsLearningStack" style="fillColor=none;strokeColor=#147EBA;dashed=1;verticalAlign=top;fontStyle=0;fontColor=#147EBA;" parent="1" vertex="1"><mxGeometry x="120" y="160" width="560" height="440" as="geometry"/></mxCell><mxCell id="17" value="HelloHitCounter" style="fillColor=none;strokeColor=#00CC00;dashed=1;verticalAlign=top;fontStyle=0;fontColor=#00CC00;" parent="1" vertex="1"><mxGeometry x="300" y="200" width="200" height="360" as="geometry"/></mxCell><mxCell id="15" value="0. request" style="edgeStyle=orthogonalEdgeStyle;rounded=0;orthogonalLoop=1;jettySize=auto;html=1;fontColor=#FFFFFF;" parent="1" source="11" target="14" edge="1"><mxGeometry relative="1" as="geometry"/></mxCell><mxCell id="11" value="User" style="shape=umlActor;verticalLabelPosition=bottom;verticalAlign=top;html=1;outlineConnect=0;fontColor=#FFFFFF;strokeColor=#FFFFFF;" parent="1" vertex="1"><mxGeometry x="10" y="249" width="30" height="60" as="geometry"/></mxCell><mxCell id="20" value="1. invoke" style="edgeStyle=orthogonalEdgeStyle;rounded=0;orthogonalLoop=1;jettySize=auto;html=1;fontColor=#FFFFFF;" parent="1" source="14" target="16" edge="1"><mxGeometry relative="1" as="geometry"/></mxCell><mxCell id="28" value="6. response" style="edgeStyle=orthogonalEdgeStyle;rounded=0;orthogonalLoop=1;jettySize=auto;html=1;fontColor=#FFFFFF;" edge="1" parent="1" source="14" target="11"><mxGeometry relative="1" as="geometry"><Array as="points"><mxPoint x="90" y="300"/><mxPoint x="90" y="300"/></Array></mxGeometry></mxCell><mxCell id="14" value="Endpoint" style="sketch=0;points=[[0,0,0],[0.25,0,0],[0.5,0,0],[0.75,0,0],[1,0,0],[0,1,0],[0.25,1,0],[0.5,1,0],[0.75,1,0],[1,1,0],[0,0.25,0],[0,0.5,0],[0,0.75,0],[1,0.25,0],[1,0.5,0],[1,0.75,0]];outlineConnect=0;fontColor=#FFFFFF;gradientColor=#FF4F8B;gradientDirection=north;fillColor=#BC1356;strokeColor=#ffffff;dashed=0;verticalLabelPosition=bottom;verticalAlign=top;align=center;html=1;fontSize=12;fontStyle=0;aspect=fixed;shape=mxgraph.aws4.resourceIcon;resIcon=mxgraph.aws4.api_gateway;" parent="1" vertex="1"><mxGeometry x="160" y="240" width="78" height="78" as="geometry"/></mxCell><mxCell id="21" value="2. update(path, hits++)" style="edgeStyle=orthogonalEdgeStyle;rounded=0;orthogonalLoop=1;jettySize=auto;html=1;fontColor=#FFFFFF;" parent="1" source="16" edge="1"><mxGeometry relative="1" as="geometry"><mxPoint x="401" y="439" as="targetPoint"/></mxGeometry></mxCell><mxCell id="23" value="3. invoke" style="edgeStyle=orthogonalEdgeStyle;rounded=0;orthogonalLoop=1;jettySize=auto;html=1;fontColor=#FFFFFF;" edge="1" parent="1" source="16" target="22"><mxGeometry relative="1" as="geometry"/></mxCell><mxCell id="25" value="5. response" style="edgeStyle=orthogonalEdgeStyle;rounded=0;orthogonalLoop=1;jettySize=auto;html=1;fontColor=#FFFFFF;" edge="1" parent="1" source="16" target="14"><mxGeometry relative="1" as="geometry"><Array as="points"><mxPoint x="300" y="300"/><mxPoint x="300" y="300"/></Array></mxGeometry></mxCell><mxCell id="16" value="HitCounterHandler" style="sketch=0;points=[[0,0,0],[0.25,0,0],[0.5,0,0],[0.75,0,0],[1,0,0],[0,1,0],[0.25,1,0],[0.5,1,0],[0.75,1,0],[1,1,0],[0,0.25,0],[0,0.5,0],[0,0.75,0],[1,0.25,0],[1,0.5,0],[1,0.75,0]];outlineConnect=0;fontColor=#FFFFFF;gradientColor=#F78E04;gradientDirection=north;fillColor=#D05C17;strokeColor=#ffffff;dashed=0;verticalLabelPosition=bottom;verticalAlign=top;align=center;html=1;fontSize=12;fontStyle=0;aspect=fixed;shape=mxgraph.aws4.resourceIcon;resIcon=mxgraph.aws4.lambda;" parent="1" vertex="1"><mxGeometry x="362" y="240" width="78" height="78" as="geometry"/></mxCell><mxCell id="24" value="4. response" style="edgeStyle=orthogonalEdgeStyle;rounded=0;orthogonalLoop=1;jettySize=auto;html=1;fontColor=#FFFFFF;" edge="1" parent="1" source="22" target="16"><mxGeometry relative="1" as="geometry"><Array as="points"><mxPoint x="500" y="300"/><mxPoint x="500" y="300"/></Array></mxGeometry></mxCell><mxCell id="22" value="HelloHandlerJs" style="sketch=0;points=[[0,0,0],[0.25,0,0],[0.5,0,0],[0.75,0,0],[1,0,0],[0,1,0],[0.25,1,0],[0.5,1,0],[0.75,1,0],[1,1,0],[0,0.25,0],[0,0.5,0],[0,0.75,0],[1,0.25,0],[1,0.5,0],[1,0.75,0]];outlineConnect=0;fontColor=#FFFFFF;gradientColor=#F78E04;gradientDirection=north;fillColor=#D05C17;strokeColor=#ffffff;dashed=0;verticalLabelPosition=bottom;verticalAlign=top;align=center;html=1;fontSize=12;fontStyle=0;aspect=fixed;shape=mxgraph.aws4.resourceIcon;resIcon=mxgraph.aws4.lambda;" vertex="1" parent="1"><mxGeometry x="560" y="240" width="78" height="78" as="geometry"/></mxCell><mxCell id="29" value="Hits" style="sketch=0;points=[[0,0,0],[0.25,0,0],[0.5,0,0],[0.75,0,0],[1,0,0],[0,1,0],[0.25,1,0],[0.5,1,0],[0.75,1,0],[1,1,0],[0,0.25,0],[0,0.5,0],[0,0.75,0],[1,0.25,0],[1,0.5,0],[1,0.75,0]];outlineConnect=0;fontColor=#FFFFFF;gradientColor=#4D72F3;gradientDirection=north;fillColor=#3334B9;strokeColor=#ffffff;dashed=0;verticalLabelPosition=bottom;verticalAlign=top;align=center;html=1;fontSize=12;fontStyle=0;aspect=fixed;shape=mxgraph.aws4.resourceIcon;resIcon=mxgraph.aws4.dynamodb;" vertex="1" parent="1"><mxGeometry x="361" y="442" width="78" height="78" as="geometry"/></mxCell></root></mxGraphModel></diagram></mxfile>